<?xml version="1.0" encoding="UTF-8"?>
<svg xmlns="http://www.w3.org/2000/svg" xmlns:xlink="http://www.w3.org/1999/xlink" width="24pt" height="24pt" viewBox="0 0 24 24" version="1.1">
<g id="surface1">
<path style=" stroke:none;fill-rule:nonzero;fill:rgb(0%,0%,0%);fill-opacity:1;" d="M 4.332031 6.289062 L 4.445312 6.402344 L 4.023438 6.492188 C 3.429688 6.621094 3.292969 6.664062 3.292969 6.722656 C 3.292969 6.761719 3.082031 6.8125 2.585938 6.894531 C 1.328125 7.089844 0.855469 7.15625 0.484375 7.183594 C 0.289062 7.203125 0.125 7.226562 0.125 7.246094 C 0.125 7.304688 0.367188 7.480469 0.683594 7.65625 C 0.851562 7.75 0.980469 7.84375 0.957031 7.863281 C 0.9375 7.886719 0.796875 7.949219 0.644531 8.011719 C 0.488281 8.074219 0.363281 8.144531 0.359375 8.167969 C 0.355469 8.1875 0.507812 8.261719 0.691406 8.332031 C 0.875 8.398438 1.027344 8.46875 1.027344 8.480469 C 1.027344 8.492188 0.984375 8.527344 0.929688 8.550781 C 0.871094 8.574219 0.75 8.644531 0.65625 8.707031 C 0.453125 8.832031 0.476562 8.863281 0.800781 8.90625 C 1.234375 8.964844 1.316406 8.980469 1.316406 9.015625 C 1.316406 9.035156 1.199219 9.132812 1.050781 9.226562 C 0.902344 9.316406 0.789062 9.402344 0.800781 9.417969 C 0.820312 9.433594 1.0625 9.453125 1.351562 9.464844 L 1.871094 9.484375 L 1.675781 9.628906 C 1.433594 9.804688 1.46875 9.828125 2.007812 9.832031 L 2.394531 9.835938 L 2.183594 10.070312 C 2.070312 10.199219 1.984375 10.308594 1.992188 10.316406 C 2 10.324219 2.160156 10.304688 2.34375 10.273438 C 2.53125 10.234375 2.710938 10.207031 2.746094 10.207031 C 2.804688 10.207031 2.792969 10.222656 2.550781 10.539062 L 2.472656 10.644531 L 2.914062 10.566406 C 3.15625 10.527344 3.394531 10.496094 3.445312 10.503906 L 3.535156 10.515625 L 3.453125 10.695312 C 3.410156 10.792969 3.382812 10.886719 3.390625 10.894531 C 3.414062 10.917969 4.171875 10.597656 4.34375 10.488281 C 4.511719 10.390625 4.539062 10.390625 4.507812 10.496094 C 4.476562 10.582031 4.484375 10.585938 4.628906 10.558594 L 4.785156 10.53125 L 4.757812 10.703125 L 4.726562 10.875 L 4.898438 10.847656 C 5.058594 10.824219 5.0625 10.824219 5.0625 10.945312 L 5.0625 11.074219 L 5.300781 11.0625 C 5.519531 11.050781 5.535156 11.058594 5.546875 11.144531 C 5.558594 11.238281 5.570312 11.242188 5.898438 11.230469 C 6.085938 11.222656 6.234375 11.234375 6.238281 11.253906 C 6.246094 11.28125 6.273438 11.378906 6.296875 11.476562 L 6.339844 11.660156 L 6.644531 11.628906 L 6.945312 11.601562 L 6.976562 11.769531 C 7.007812 11.972656 7.0625 12 7.292969 11.941406 C 7.484375 11.894531 7.558594 11.925781 7.582031 12.070312 C 7.59375 12.164062 7.621094 12.167969 7.84375 12.121094 C 7.953125 12.09375 7.980469 12.101562 8.003906 12.175781 C 8.042969 12.300781 8.101562 12.285156 8.378906 12.082031 C 8.511719 11.984375 8.632812 11.910156 8.648438 11.917969 C 8.664062 11.925781 8.6875 11.992188 8.703125 12.058594 C 8.71875 12.128906 8.746094 12.179688 8.761719 12.179688 C 8.777344 12.179688 8.863281 12.105469 8.949219 12.015625 C 9.035156 11.925781 9.125 11.851562 9.140625 11.851562 C 9.152344 11.851562 9.25 11.925781 9.355469 12.015625 L 9.539062 12.179688 L 9.878906 11.832031 C 10.070312 11.636719 10.238281 11.484375 10.257812 11.492188 C 10.300781 11.507812 10.78125 12.320312 10.78125 12.378906 C 10.78125 12.414062 10.261719 12.996094 9.867188 13.398438 L 9.582031 13.695312 L 9.609375 13.996094 C 9.648438 14.441406 9.65625 14.457031 9.8125 14.433594 C 9.878906 14.417969 9.972656 14.398438 10.007812 14.382812 C 10.066406 14.363281 10.054688 14.429688 9.933594 14.753906 C 9.855469 14.976562 9.800781 15.164062 9.816406 15.175781 C 9.832031 15.199219 9.949219 15.121094 10.367188 14.824219 C 10.441406 14.773438 10.441406 14.78125 10.386719 15.027344 C 10.320312 15.328125 10.316406 15.433594 10.363281 15.433594 C 10.378906 15.433594 10.566406 15.273438 10.78125 15.074219 L 11.164062 14.710938 L 11.136719 15.183594 L 11.105469 15.660156 L 11.480469 15.289062 C 11.6875 15.082031 11.875 14.921875 11.90625 14.929688 C 11.933594 14.9375 12.078125 15.074219 12.226562 15.234375 C 12.394531 15.417969 12.515625 15.519531 12.542969 15.496094 C 12.574219 15.476562 12.59375 15.335938 12.59375 15.089844 L 12.59375 14.710938 L 12.984375 15.101562 C 13.199219 15.316406 13.386719 15.476562 13.402344 15.460938 C 13.417969 15.441406 13.402344 15.285156 13.367188 15.109375 C 13.332031 14.9375 13.308594 14.789062 13.3125 14.78125 C 13.316406 14.777344 13.46875 14.878906 13.644531 15.015625 C 13.824219 15.152344 13.976562 15.253906 13.980469 15.25 C 13.988281 15.246094 13.925781 15.058594 13.847656 14.835938 C 13.769531 14.609375 13.710938 14.417969 13.71875 14.410156 C 13.726562 14.402344 13.804688 14.414062 13.894531 14.441406 C 14.003906 14.46875 14.058594 14.46875 14.078125 14.441406 C 14.089844 14.414062 14.113281 14.238281 14.132812 14.050781 L 14.160156 13.699219 L 13.644531 13.15625 C 13.367188 12.855469 13.089844 12.558594 13.042969 12.492188 C 12.949219 12.375 12.949219 12.375 13.023438 12.246094 C 13.066406 12.175781 13.183594 11.96875 13.292969 11.777344 L 13.484375 11.441406 L 14.203125 12.183594 L 14.371094 12.035156 C 14.464844 11.957031 14.566406 11.894531 14.597656 11.894531 C 14.625 11.894531 14.722656 11.957031 14.816406 12.042969 L 14.976562 12.1875 L 15.035156 12.035156 C 15.105469 11.867188 15.101562 11.867188 15.402344 12.105469 C 15.632812 12.289062 15.648438 12.292969 15.761719 12.179688 C 15.828125 12.113281 15.859375 12.105469 15.953125 12.144531 C 16.101562 12.199219 16.160156 12.167969 16.195312 12.015625 C 16.21875 11.902344 16.234375 11.890625 16.332031 11.910156 C 16.707031 11.996094 16.691406 12 16.757812 11.804688 L 16.820312 11.625 L 17.425781 11.625 L 17.464844 11.417969 L 17.511719 11.214844 L 17.828125 11.230469 C 18.140625 11.242188 18.148438 11.238281 18.1875 11.132812 C 18.230469 11.027344 18.238281 11.023438 18.457031 11.050781 L 18.683594 11.078125 L 18.683594 10.949219 C 18.683594 10.816406 18.703125 10.800781 18.859375 10.859375 C 18.953125 10.898438 18.964844 10.890625 18.988281 10.738281 C 19.007812 10.613281 19.03125 10.574219 19.09375 10.574219 C 19.140625 10.574219 19.210938 10.554688 19.25 10.53125 C 19.3125 10.492188 19.429688 10.527344 19.855469 10.710938 C 20.152344 10.839844 20.398438 10.933594 20.40625 10.925781 C 20.414062 10.917969 20.371094 10.824219 20.308594 10.71875 C 20.246094 10.613281 20.210938 10.519531 20.222656 10.507812 C 20.234375 10.492188 20.457031 10.515625 20.722656 10.550781 C 20.988281 10.59375 21.210938 10.613281 21.21875 10.605469 C 21.226562 10.597656 21.167969 10.507812 21.089844 10.40625 C 21.011719 10.308594 20.945312 10.21875 20.945312 10.207031 C 20.945312 10.195312 21.109375 10.210938 21.316406 10.242188 C 21.519531 10.277344 21.695312 10.292969 21.710938 10.277344 C 21.726562 10.261719 21.648438 10.152344 21.542969 10.03125 L 21.34375 9.816406 L 21.8125 9.800781 L 22.273438 9.789062 L 22.070312 9.636719 L 21.871094 9.484375 L 22.375 9.464844 C 22.648438 9.453125 22.886719 9.433594 22.902344 9.414062 C 22.917969 9.402344 22.816406 9.3125 22.679688 9.222656 C 22.539062 9.128906 22.429688 9.03125 22.429688 9.015625 C 22.429688 8.972656 22.546875 8.941406 22.902344 8.910156 C 23.332031 8.863281 23.34375 8.839844 23.007812 8.664062 C 22.847656 8.574219 22.714844 8.492188 22.714844 8.476562 C 22.714844 8.460938 22.867188 8.390625 23.058594 8.328125 C 23.242188 8.261719 23.394531 8.195312 23.394531 8.167969 C 23.394531 8.148438 23.25 8.074219 23.074219 8 C 22.898438 7.929688 22.746094 7.859375 22.734375 7.847656 C 22.71875 7.839844 22.898438 7.726562 23.128906 7.609375 C 23.355469 7.484375 23.59375 7.34375 23.65625 7.296875 L 23.765625 7.207031 L 23.558594 7.203125 C 23.273438 7.203125 22.535156 7.105469 21.425781 6.929688 C 20.71875 6.820312 20.464844 6.761719 20.410156 6.707031 C 20.339844 6.636719 20.144531 6.585938 19.527344 6.460938 L 19.285156 6.410156 L 19.414062 6.292969 L 19.546875 6.171875 L 19.273438 6.175781 C 19.113281 6.175781 18.445312 6.203125 17.777344 6.230469 L 16.5625 6.285156 L 15.90625 6.746094 C 14.574219 7.683594 13.394531 8.355469 13.074219 8.355469 C 12.90625 8.355469 12.898438 8.34375 12.820312 8.167969 C 12.695312 7.890625 12.4375 7.738281 11.992188 7.683594 L 11.644531 7.636719 L 11.328125 7.800781 C 11.011719 7.96875 10.996094 7.980469 10.898438 8.21875 C 10.847656 8.339844 10.828125 8.355469 10.675781 8.355469 C 10.339844 8.355469 9.277344 7.753906 7.898438 6.785156 L 7.179688 6.285156 L 5.96875 6.230469 C 5.300781 6.203125 4.632812 6.175781 4.488281 6.175781 L 4.222656 6.171875 Z M 6.195312 6.417969 L 7.109375 6.417969 L 7.800781 6.941406 C 8.8125 7.707031 8.972656 7.867188 9.125 8.257812 C 9.195312 8.4375 9.234375 8.585938 9.222656 8.59375 C 9.167969 8.613281 8.292969 8.210938 8.101562 8.074219 C 8 8.003906 7.640625 7.660156 7.308594 7.308594 L 6.699219 6.667969 L 5.992188 6.667969 C 5.328125 6.667969 5.277344 6.660156 5.070312 6.5625 C 4.804688 6.441406 4.816406 6.359375 5.09375 6.394531 C 5.199219 6.40625 5.691406 6.417969 6.195312 6.417969 Z M 18.847656 6.460938 C 18.605469 6.648438 18.519531 6.667969 17.769531 6.667969 L 17.054688 6.667969 L 16.382812 7.375 L 15.710938 8.085938 L 15.136719 8.34375 C 14.816406 8.484375 14.546875 8.59375 14.535156 8.582031 C 14.523438 8.570312 14.574219 8.394531 14.648438 8.199219 C 14.773438 7.867188 14.8125 7.816406 14.996094 7.667969 C 15.109375 7.582031 15.519531 7.265625 15.902344 6.976562 L 16.601562 6.445312 L 17.425781 6.417969 C 17.878906 6.402344 18.40625 6.390625 18.601562 6.386719 L 18.949219 6.378906 Z M 4.796875 6.585938 C 4.933594 6.585938 4.9375 6.589844 4.9375 6.75 C 4.9375 6.839844 4.929688 6.914062 4.921875 6.914062 C 4.910156 6.914062 4.761719 6.839844 4.59375 6.746094 C 4.417969 6.65625 4.28125 6.589844 4.28125 6.597656 C 4.28125 6.609375 4.398438 6.695312 4.546875 6.785156 C 4.695312 6.878906 4.816406 6.964844 4.816406 6.976562 C 4.816406 6.988281 4.613281 6.996094 4.363281 6.996094 C 3.84375 6.996094 3.835938 6.988281 4.035156 6.707031 L 4.164062 6.53125 L 4.410156 6.558594 C 4.550781 6.570312 4.722656 6.585938 4.796875 6.585938 Z M 19.558594 6.582031 C 19.660156 6.617188 19.835938 6.855469 19.835938 6.949219 C 19.835938 7 19.050781 7.015625 19 6.96875 C 18.984375 6.953125 19.082031 6.867188 19.21875 6.785156 C 19.355469 6.699219 19.464844 6.617188 19.464844 6.601562 C 19.464844 6.589844 19.324219 6.65625 19.152344 6.746094 C 18.984375 6.839844 18.835938 6.914062 18.824219 6.914062 C 18.816406 6.914062 18.804688 6.839844 18.804688 6.753906 C 18.804688 6.605469 18.820312 6.589844 18.921875 6.570312 C 19.140625 6.539062 19.460938 6.542969 19.558594 6.582031 Z M 6.617188 6.839844 C 6.605469 6.867188 6.542969 6.898438 6.476562 6.90625 L 6.359375 6.914062 L 6.460938 6.855469 C 6.589844 6.777344 6.636719 6.773438 6.617188 6.839844 Z M 17.324219 6.871094 C 17.375 6.90625 17.371094 6.914062 17.296875 6.914062 C 17.246094 6.914062 17.195312 6.894531 17.179688 6.871094 C 17.148438 6.820312 17.242188 6.820312 17.324219 6.871094 Z M 3.429688 6.957031 C 3.367188 7.019531 2.847656 7.113281 2.46875 7.140625 C 2.046875 7.160156 2.082031 7.148438 2.820312 7 C 3.375 6.890625 3.507812 6.878906 3.429688 6.957031 Z M 6.003906 6.9375 L 6.148438 6.964844 L 5.964844 7.046875 C 5.773438 7.128906 5.707031 7.128906 5.261719 7.03125 C 4.765625 6.925781 5.398438 6.847656 6.003906 6.9375 Z M 21.464844 7.152344 C 21.273438 7.167969 20.542969 7.058594 20.394531 6.992188 C 20.164062 6.886719 20.3125 6.894531 20.957031 7.011719 C 21.4375 7.101562 21.582031 7.144531 21.464844 7.152344 Z M 18.617188 6.949219 C 18.636719 6.984375 18.15625 7.121094 18.015625 7.121094 C 17.988281 7.121094 17.886719 7.085938 17.78125 7.050781 C 17.632812 6.992188 17.617188 6.976562 17.679688 6.949219 C 17.792969 6.90625 18.59375 6.90625 18.617188 6.949219 Z M 3.988281 7.085938 C 4.101562 7.109375 4.199219 7.144531 4.199219 7.15625 C 4.199219 7.210938 1.660156 7.925781 1.613281 7.886719 C 1.589844 7.855469 3.632812 7.042969 3.734375 7.035156 C 3.757812 7.035156 3.871094 7.058594 3.988281 7.085938 Z M 6.558594 7.101562 C 6.65625 7.195312 6.640625 7.25 6.515625 7.375 C 6.367188 7.515625 6.261719 7.535156 5.863281 7.496094 L 5.535156 7.464844 L 5.84375 7.308594 C 6.125 7.164062 6.394531 7.050781 6.46875 7.042969 C 6.484375 7.035156 6.527344 7.066406 6.558594 7.101562 Z M 17.769531 7.242188 C 17.953125 7.328125 18.105469 7.417969 18.105469 7.441406 C 18.105469 7.460938 17.964844 7.488281 17.789062 7.503906 C 17.527344 7.523438 17.445312 7.515625 17.324219 7.453125 C 17.15625 7.367188 17.078125 7.199219 17.160156 7.097656 C 17.230469 7.011719 17.324219 7.035156 17.769531 7.242188 Z M 20.441406 7.199219 C 20.996094 7.394531 22.023438 7.816406 22.074219 7.863281 C 22.121094 7.90625 20.753906 7.554688 20.0625 7.34375 C 19.789062 7.261719 19.558594 7.1875 19.550781 7.179688 C 19.542969 7.167969 19.582031 7.148438 19.632812 7.128906 C 19.6875 7.105469 19.761719 7.078125 19.792969 7.066406 C 19.914062 7.019531 20 7.035156 20.441406 7.199219 Z M 18.992188 7.144531 L 19.199219 7.171875 L 18.847656 7.246094 C 18.425781 7.335938 18.300781 7.339844 18.320312 7.273438 C 18.34375 7.199219 18.605469 7.078125 18.699219 7.097656 C 18.75 7.105469 18.878906 7.128906 18.992188 7.144531 Z M 5.351562 7.222656 C 5.441406 7.316406 5.441406 7.324219 5.367188 7.324219 C 5.324219 7.324219 5.136719 7.296875 4.945312 7.257812 C 4.550781 7.175781 4.566406 7.121094 4.984375 7.121094 C 5.21875 7.121094 5.265625 7.132812 5.351562 7.222656 Z M 4.683594 7.34375 C 4.867188 7.386719 5.054688 7.441406 5.089844 7.46875 C 5.164062 7.527344 5.113281 7.535156 4.476562 7.59375 L 4.199219 7.621094 L 4.199219 7.457031 C 4.199219 7.289062 4.226562 7.230469 4.296875 7.253906 C 4.320312 7.265625 4.492188 7.304688 4.683594 7.34375 Z M 19.554688 7.429688 C 19.574219 7.515625 19.582031 7.59375 19.570312 7.605469 C 19.539062 7.632812 18.601562 7.527344 18.601562 7.488281 C 18.601562 7.457031 19.417969 7.242188 19.484375 7.257812 C 19.507812 7.261719 19.539062 7.339844 19.554688 7.429688 Z M 6.742188 7.621094 C 6.734375 7.71875 6.703125 7.761719 6.613281 7.789062 C 6.550781 7.8125 6.46875 7.816406 6.433594 7.800781 C 6.375 7.777344 6.386719 7.753906 6.503906 7.632812 C 6.679688 7.449219 6.757812 7.445312 6.742188 7.621094 Z M 17.222656 7.613281 C 17.363281 7.757812 17.324219 7.835938 17.140625 7.785156 C 17.042969 7.757812 17.011719 7.726562 17.003906 7.621094 C 16.988281 7.453125 17.066406 7.449219 17.222656 7.613281 Z M 5.929688 7.703125 L 6.265625 7.835938 L 6.121094 7.867188 C 6.03125 7.886719 5.742188 7.9375 5.460938 7.984375 C 5.183594 8.027344 4.914062 8.078125 4.863281 8.089844 C 4.800781 8.101562 4.777344 8.09375 4.792969 8.066406 C 4.84375 7.988281 5.453125 7.574219 5.523438 7.570312 C 5.558594 7.570312 5.746094 7.632812 5.929688 7.703125 Z M 18.46875 7.703125 C 18.574219 7.773438 18.746094 7.898438 18.847656 7.976562 L 19.03125 8.121094 L 18.867188 8.089844 C 18.257812 7.988281 17.535156 7.839844 17.554688 7.824219 C 17.597656 7.777344 18.128906 7.574219 18.203125 7.574219 C 18.242188 7.570312 18.363281 7.628906 18.46875 7.703125 Z M 3.4375 7.695312 C 3.480469 7.769531 3.378906 7.851562 3.074219 7.980469 C 2.757812 8.105469 1.8125 8.40625 1.785156 8.382812 C 1.765625 8.363281 3.300781 7.65625 3.363281 7.65625 C 3.386719 7.65625 3.425781 7.675781 3.4375 7.695312 Z M 21.3125 8.070312 C 21.613281 8.214844 21.84375 8.335938 21.820312 8.34375 C 21.761719 8.363281 20.898438 8.082031 20.59375 7.941406 C 20.320312 7.824219 20.246094 7.75 20.328125 7.695312 C 20.394531 7.65625 20.589844 7.726562 21.3125 8.070312 Z M 3.992188 7.765625 C 3.992188 7.828125 3.765625 8.078125 3.628906 8.164062 C 3.453125 8.277344 2.222656 8.777344 2.199219 8.753906 C 2.160156 8.71875 3.863281 7.742188 3.964844 7.738281 C 3.980469 7.738281 3.992188 7.75 3.992188 7.765625 Z M 20.09375 7.886719 C 20.59375 8.136719 21.710938 8.816406 21.523438 8.753906 C 21.332031 8.691406 20.375 8.296875 20.210938 8.210938 C 20.019531 8.113281 19.753906 7.859375 19.753906 7.777344 C 19.753906 7.714844 19.769531 7.722656 20.09375 7.886719 Z M 6.632812 8.195312 C 6.617188 8.210938 6.402344 8.277344 6.152344 8.34375 L 5.699219 8.46875 L 6.027344 8.167969 L 6.359375 7.863281 L 6.511719 8.015625 C 6.597656 8.097656 6.65625 8.175781 6.632812 8.195312 Z M 7.203125 7.933594 C 7.203125 7.972656 6.871094 8.230469 6.824219 8.230469 C 6.777344 8.230469 6.78125 8.074219 6.832031 7.980469 C 6.863281 7.921875 6.917969 7.902344 7.035156 7.902344 C 7.128906 7.902344 7.203125 7.917969 7.203125 7.933594 Z M 16.878906 7.972656 C 16.953125 8.035156 16.984375 8.230469 16.921875 8.230469 C 16.847656 8.230469 16.539062 7.980469 16.5625 7.941406 C 16.605469 7.875 16.796875 7.894531 16.878906 7.972656 Z M 17.699219 8.152344 C 17.859375 8.292969 17.980469 8.414062 17.96875 8.425781 C 17.949219 8.441406 17.167969 8.238281 17.105469 8.203125 C 17.066406 8.175781 17.320312 7.902344 17.378906 7.902344 C 17.398438 7.902344 17.542969 8.015625 17.699219 8.152344 Z M 7.527344 8.070312 C 7.597656 8.09375 7.65625 8.132812 7.65625 8.148438 C 7.65625 8.195312 7.164062 8.640625 7.113281 8.640625 C 7.035156 8.640625 7.082031 8.367188 7.1875 8.199219 C 7.3125 8.007812 7.332031 8.003906 7.527344 8.070312 Z M 9.550781 8.214844 L 9.792969 8.398438 L 9.792969 8.910156 C 9.792969 9.378906 9.757812 9.558594 9.695312 9.398438 C 9.640625 9.257812 9.257812 8.078125 9.257812 8.054688 C 9.257812 8 9.308594 8.023438 9.550781 8.214844 Z M 14.417969 8.238281 C 14.273438 8.753906 14.066406 9.339844 14.027344 9.339844 C 14.007812 9.339844 13.992188 9.242188 13.992188 9.121094 C 13.992188 9 13.980469 8.789062 13.96875 8.648438 L 13.9375 8.402344 L 14.199219 8.214844 C 14.335938 8.109375 14.460938 8.023438 14.46875 8.023438 C 14.472656 8.023438 14.453125 8.125 14.417969 8.238281 Z M 16.519531 8.144531 C 16.664062 8.300781 16.734375 8.640625 16.621094 8.640625 C 16.605469 8.640625 16.464844 8.527344 16.3125 8.386719 C 16.082031 8.167969 16.054688 8.128906 16.121094 8.101562 C 16.261719 8.046875 16.449219 8.066406 16.519531 8.144531 Z M 11.597656 8.324219 C 11.824219 8.542969 11.722656 8.683594 11.460938 8.519531 C 11.257812 8.394531 11.167969 8.25 11.234375 8.167969 C 11.296875 8.09375 11.398438 8.140625 11.597656 8.324219 Z M 12.542969 8.207031 C 12.5625 8.296875 12.449219 8.425781 12.261719 8.519531 C 12 8.648438 11.929688 8.53125 12.152344 8.324219 C 12.386719 8.101562 12.519531 8.0625 12.542969 8.207031 Z M 4.378906 8.390625 C 4.3125 8.492188 4.28125 8.585938 4.296875 8.632812 C 4.316406 8.691406 4.285156 8.75 4.179688 8.839844 C 3.992188 9.003906 3.085938 9.601562 3.0625 9.574219 C 3.035156 9.550781 4.398438 8.230469 4.449219 8.230469 C 4.46875 8.230469 4.441406 8.304688 4.378906 8.390625 Z M 20.09375 8.953125 C 20.519531 9.355469 20.863281 9.683594 20.863281 9.695312 C 20.863281 9.742188 19.753906 9.007812 19.515625 8.804688 C 19.445312 8.75 19.425781 8.699219 19.445312 8.640625 C 19.460938 8.59375 19.441406 8.519531 19.390625 8.445312 C 19.140625 8.082031 19.25 8.160156 20.09375 8.953125 Z M 4.074219 8.3125 C 4.074219 8.335938 3.988281 8.414062 3.886719 8.488281 C 3.628906 8.671875 2.792969 9.148438 2.773438 9.125 C 2.738281 9.089844 3.949219 8.273438 4.046875 8.273438 C 4.0625 8.273438 4.074219 8.292969 4.074219 8.3125 Z M 19.9375 8.390625 C 20.230469 8.558594 20.894531 9.054688 20.828125 9.054688 C 20.707031 9.054688 19.671875 8.386719 19.671875 8.308594 C 19.671875 8.25 19.71875 8.261719 19.9375 8.390625 Z M 7.855469 8.539062 C 7.910156 8.75 7.886719 8.832031 7.703125 9.019531 C 7.523438 9.214844 7.324219 9.152344 7.324219 8.90625 C 7.324219 8.804688 7.375 8.71875 7.515625 8.5625 C 7.617188 8.449219 7.726562 8.355469 7.757812 8.355469 C 7.785156 8.355469 7.832031 8.4375 7.855469 8.539062 Z M 16.3125 8.675781 C 16.394531 8.792969 16.417969 8.878906 16.410156 8.980469 C 16.390625 9.183594 16.261719 9.179688 16.027344 8.96875 C 15.828125 8.78125 15.8125 8.714844 15.90625 8.492188 L 15.96875 8.34375 L 16.082031 8.433594 C 16.148438 8.476562 16.25 8.589844 16.3125 8.675781 Z M 6.871094 8.527344 C 6.871094 8.628906 6.832031 8.695312 6.679688 8.839844 C 6.375 9.125 5.515625 9.84375 5.515625 9.816406 C 5.515625 9.765625 6.425781 8.605469 6.546875 8.503906 C 6.617188 8.445312 6.714844 8.394531 6.773438 8.394531 C 6.855469 8.394531 6.871094 8.414062 6.871094 8.527344 Z M 14.859375 9.011719 C 14.515625 9.355469 14.214844 9.628906 14.199219 9.628906 C 14.167969 9.628906 14.414062 8.941406 14.460938 8.902344 C 14.496094 8.863281 15.414062 8.398438 15.453125 8.398438 C 15.476562 8.398438 15.210938 8.675781 14.859375 9.011719 Z M 17.242188 8.554688 C 17.394531 8.710938 18.226562 9.757812 18.292969 9.875 C 18.335938 9.953125 17.527344 9.246094 17.15625 8.890625 C 16.996094 8.738281 16.867188 8.570312 16.855469 8.507812 C 16.832031 8.402344 16.839844 8.394531 16.957031 8.394531 C 17.058594 8.394531 17.128906 8.4375 17.242188 8.554688 Z M 9.074219 8.773438 C 9.164062 8.832031 9.257812 8.90625 9.289062 8.933594 C 9.351562 9.007812 9.550781 9.550781 9.539062 9.597656 C 9.523438 9.640625 8.476562 8.589844 8.476562 8.527344 C 8.476562 8.46875 8.824219 8.613281 9.074219 8.773438 Z M 11.273438 8.585938 C 11.363281 8.640625 11.457031 8.75 11.484375 8.820312 C 11.515625 8.894531 11.609375 9.066406 11.691406 9.210938 C 11.832031 9.449219 11.847656 9.464844 11.910156 9.398438 C 11.945312 9.363281 12.011719 9.261719 12.058594 9.179688 C 12.097656 9.09375 12.164062 9.003906 12.199219 8.976562 C 12.234375 8.941406 12.261719 8.875 12.261719 8.824219 C 12.261719 8.757812 12.316406 8.6875 12.433594 8.601562 C 12.613281 8.472656 12.644531 8.472656 12.714844 8.601562 C 12.753906 8.671875 12.738281 8.691406 12.597656 8.765625 C 12.464844 8.832031 12.429688 8.875 12.402344 8.996094 C 12.382812 9.101562 12.300781 9.226562 12.125 9.414062 L 11.867188 9.679688 L 11.617188 9.40625 C 11.441406 9.222656 11.355469 9.089844 11.332031 8.992188 C 11.3125 8.875 11.277344 8.828125 11.148438 8.765625 C 11 8.6875 10.992188 8.675781 11.035156 8.582031 C 11.0625 8.523438 11.089844 8.476562 11.097656 8.476562 C 11.105469 8.476562 11.183594 8.527344 11.273438 8.585938 Z M 10.183594 8.664062 C 10.300781 8.757812 10.304688 8.769531 10.25 8.910156 C 10.222656 8.992188 10.148438 9.171875 10.082031 9.3125 L 9.964844 9.566406 L 9.957031 9.0625 C 9.957031 8.511719 9.972656 8.488281 10.183594 8.664062 Z M 13.785156 9.0625 L 13.785156 9.566406 L 13.617188 9.210938 C 13.523438 9.003906 13.460938 8.820312 13.472656 8.777344 C 13.492188 8.707031 13.683594 8.5625 13.757812 8.558594 C 13.773438 8.558594 13.785156 8.785156 13.785156 9.0625 Z M 5.472656 8.625 C 5.472656 8.6875 5.359375 8.847656 5.171875 9.054688 C 4.898438 9.359375 4.234375 9.96875 4.207031 9.941406 C 4.179688 9.914062 4.78125 9.011719 4.890625 8.917969 C 4.972656 8.84375 5.390625 8.601562 5.445312 8.601562 C 5.460938 8.601562 5.472656 8.613281 5.472656 8.625 Z M 10.800781 8.671875 C 10.75 8.792969 10.664062 9.230469 10.683594 9.265625 C 10.695312 9.285156 10.773438 9.300781 10.859375 9.300781 C 10.953125 9.300781 11.058594 9.332031 11.125 9.382812 C 11.179688 9.429688 11.277344 9.464844 11.335938 9.464844 C 11.414062 9.464844 11.507812 9.523438 11.644531 9.671875 C 11.757812 9.78125 11.863281 9.875 11.890625 9.875 C 11.910156 9.875 12.007812 9.78125 12.105469 9.667969 C 12.242188 9.507812 12.300781 9.460938 12.375 9.476562 C 12.433594 9.484375 12.523438 9.457031 12.601562 9.398438 C 12.6875 9.332031 12.785156 9.300781 12.902344 9.300781 C 12.996094 9.300781 13.082031 9.289062 13.09375 9.277344 C 13.109375 9.261719 13.09375 9.1875 13.0625 9.113281 C 13.027344 9.035156 13.003906 8.917969 13.003906 8.851562 C 13.003906 8.785156 12.988281 8.714844 12.964844 8.703125 C 12.898438 8.664062 12.917969 8.601562 12.996094 8.601562 C 13.164062 8.601562 13.375 9.015625 13.375 9.34375 C 13.375 9.617188 13.265625 9.722656 12.65625 10.050781 C 12.03125 10.382812 11.925781 10.425781 11.78125 10.390625 C 11.65625 10.363281 10.621094 9.804688 10.492188 9.703125 C 10.375 9.601562 10.351562 9.375 10.429688 9.0625 C 10.511719 8.71875 10.589844 8.601562 10.722656 8.601562 C 10.8125 8.601562 10.828125 8.613281 10.800781 8.671875 Z M 18.574219 8.714844 C 18.757812 8.785156 18.804688 8.839844 19.113281 9.285156 C 19.304688 9.550781 19.488281 9.828125 19.53125 9.898438 L 19.605469 10.019531 L 19.441406 9.890625 C 19.15625 9.660156 18.378906 8.867188 18.296875 8.726562 C 18.210938 8.570312 18.195312 8.570312 18.574219 8.714844 Z M 6.007812 8.8125 C 5.496094 9.261719 5.101562 9.59375 5.101562 9.558594 C 5.101562 9.542969 5.203125 9.378906 5.320312 9.199219 C 5.519531 8.894531 5.550781 8.863281 5.800781 8.757812 C 6.171875 8.601562 6.226562 8.617188 6.007812 8.8125 Z M 17.839844 8.722656 C 17.976562 8.769531 18.125 8.835938 18.171875 8.867188 C 18.261719 8.925781 18.667969 9.535156 18.632812 9.566406 C 18.621094 9.582031 17.851562 8.933594 17.632812 8.71875 C 17.535156 8.621094 17.542969 8.621094 17.839844 8.722656 Z M 4.816406 8.765625 C 4.816406 8.878906 4.152344 9.453125 3.640625 9.777344 L 3.523438 9.855469 L 3.59375 9.753906 C 3.628906 9.695312 3.859375 9.441406 4.097656 9.183594 C 4.488281 8.773438 4.546875 8.722656 4.675781 8.722656 C 4.753906 8.722656 4.816406 8.742188 4.816406 8.765625 Z M 19.253906 8.800781 C 19.398438 8.90625 20.222656 9.789062 20.199219 9.820312 C 20.132812 9.886719 18.863281 8.839844 18.914062 8.761719 C 18.949219 8.699219 19.140625 8.71875 19.253906 8.800781 Z M 7.152344 9.003906 C 7.164062 9.121094 7.140625 9.167969 7.007812 9.292969 C 6.859375 9.433594 6.121094 9.964844 5.824219 10.148438 L 5.699219 10.222656 L 5.804688 10.097656 C 6.839844 8.917969 6.914062 8.84375 7.058594 8.859375 C 7.121094 8.863281 7.144531 8.90625 7.152344 9.003906 Z M 16.992188 9.050781 C 17.222656 9.285156 17.910156 10.074219 17.964844 10.160156 C 18.007812 10.238281 17.976562 10.21875 17.378906 9.785156 C 16.6875 9.285156 16.585938 9.183594 16.585938 8.996094 C 16.585938 8.863281 16.597656 8.847656 16.691406 8.847656 C 16.761719 8.847656 16.855469 8.914062 16.992188 9.050781 Z M 8.332031 8.945312 C 8.40625 9 8.402344 9.011719 8.242188 9.226562 C 8.023438 9.519531 7.828125 9.710938 7.753906 9.710938 C 7.710938 9.710938 7.695312 9.660156 7.695312 9.511719 C 7.695312 9.308594 7.820312 9.066406 7.980469 8.941406 C 8.070312 8.871094 8.238281 8.875 8.332031 8.945312 Z M 15.835938 9.023438 C 15.976562 9.15625 16.089844 9.398438 16.089844 9.566406 C 16.089844 9.71875 16.03125 9.75 15.890625 9.671875 C 15.796875 9.625 15.351562 9.050781 15.351562 8.984375 C 15.351562 8.859375 15.691406 8.890625 15.835938 9.023438 Z M 15.472656 9.445312 C 15.742188 9.796875 15.84375 10.019531 15.871094 10.3125 C 15.894531 10.523438 15.890625 10.535156 15.804688 10.535156 C 15.695312 10.535156 15.597656 10.433594 15.300781 9.992188 L 15.066406 9.644531 L 15.132812 9.367188 C 15.164062 9.214844 15.207031 9.101562 15.226562 9.125 C 15.242188 9.140625 15.355469 9.285156 15.472656 9.445312 Z M 8.640625 9.550781 C 8.640625 9.777344 8.101562 10.535156 7.9375 10.535156 C 7.828125 10.535156 7.820312 10.492188 7.875 10.226562 C 7.949219 9.871094 8.128906 9.566406 8.453125 9.242188 C 8.535156 9.160156 8.535156 9.160156 8.589844 9.285156 C 8.613281 9.351562 8.636719 9.46875 8.640625 9.550781 Z M 7.453125 9.386719 C 7.582031 9.515625 7.53125 9.695312 7.320312 9.878906 C 7.226562 9.964844 6.910156 10.15625 6.609375 10.308594 L 6.070312 10.589844 L 6.277344 10.367188 C 6.691406 9.917969 7.304688 9.300781 7.332031 9.300781 C 7.355469 9.300781 7.402344 9.335938 7.453125 9.386719 Z M 17.09375 9.957031 C 17.398438 10.289062 17.640625 10.558594 17.632812 10.566406 C 17.613281 10.59375 16.6875 10.078125 16.484375 9.929688 C 16.265625 9.769531 16.195312 9.640625 16.230469 9.484375 C 16.257812 9.375 16.402344 9.292969 16.488281 9.335938 C 16.515625 9.351562 16.785156 9.628906 17.09375 9.957031 Z M 13.785156 10.101562 C 13.785156 10.152344 13.121094 11.609375 13.101562 11.59375 C 13.089844 11.582031 13.40625 10.175781 13.496094 9.839844 L 13.546875 9.660156 L 13.667969 9.859375 C 13.734375 9.972656 13.785156 10.078125 13.785156 10.101562 Z M 10.4375 10.625 C 10.539062 11.058594 10.617188 11.441406 10.609375 11.472656 C 10.601562 11.511719 10.453125 11.222656 10.277344 10.839844 L 9.953125 10.140625 L 10.023438 9.980469 C 10.121094 9.746094 10.167969 9.691406 10.214844 9.769531 C 10.234375 9.804688 10.332031 10.1875 10.4375 10.625 Z M 9.152344 9.839844 C 9.175781 9.859375 9.070312 10.058594 8.875 10.339844 C 8.472656 10.941406 8.265625 11.175781 8.175781 11.140625 C 8.027344 11.082031 8.121094 10.851562 8.554688 10.132812 L 8.785156 9.75 L 8.949219 9.777344 C 9.042969 9.789062 9.132812 9.820312 9.152344 9.839844 Z M 14.949219 9.835938 C 15.152344 9.996094 15.636719 10.859375 15.636719 11.058594 C 15.636719 11.199219 15.515625 11.175781 15.363281 11.015625 C 15.234375 10.878906 14.699219 10.132812 14.613281 9.964844 C 14.546875 9.84375 14.589844 9.800781 14.820312 9.757812 C 14.835938 9.757812 14.894531 9.789062 14.949219 9.835938 Z M 7.714844 9.964844 C 7.746094 10.003906 7.628906 10.539062 7.566406 10.664062 C 7.523438 10.75 6.644531 10.984375 6.675781 10.902344 C 6.703125 10.816406 7.277344 10.183594 7.445312 10.058594 C 7.636719 9.90625 7.675781 9.894531 7.714844 9.964844 Z M 16.613281 10.378906 C 16.871094 10.632812 17.101562 10.875 17.125 10.914062 C 17.152344 10.972656 17.085938 10.964844 16.675781 10.855469 C 16.410156 10.785156 16.183594 10.722656 16.175781 10.714844 C 16.15625 10.699219 16.011719 10.074219 16.007812 9.988281 C 16.007812 9.835938 16.164062 9.933594 16.613281 10.378906 Z M 14.78125 10.507812 C 15.300781 11.238281 15.425781 11.476562 15.320312 11.535156 C 15.300781 11.542969 15.226562 11.535156 15.15625 11.515625 C 15.011719 11.476562 14.777344 11.175781 14.445312 10.617188 C 14.292969 10.363281 14.285156 10.339844 14.328125 10.171875 C 14.355469 10.078125 14.382812 10 14.398438 10 C 14.410156 10 14.585938 10.230469 14.78125 10.507812 Z M 9.449219 10.390625 C 9.429688 10.464844 8.976562 11.128906 8.75 11.410156 C 8.679688 11.503906 8.449219 11.574219 8.410156 11.519531 C 8.398438 11.492188 8.398438 11.429688 8.414062 11.367188 C 8.445312 11.246094 8.957031 10.496094 9.210938 10.207031 L 9.359375 10.027344 L 9.414062 10.164062 C 9.445312 10.238281 9.460938 10.339844 9.449219 10.390625 Z M 12.308594 10.417969 L 12.738281 10.203125 L 12.351562 10.570312 C 12.140625 10.777344 11.933594 10.945312 11.890625 10.945312 C 11.804688 10.945312 11.441406 10.648438 11.152344 10.351562 L 10.96875 10.160156 L 11.425781 10.398438 L 11.878906 10.636719 Z M 11.589844 10.941406 L 11.851562 11.164062 L 12.007812 11.058594 C 12.089844 11 12.324219 10.800781 12.527344 10.621094 C 12.722656 10.4375 12.898438 10.289062 12.910156 10.289062 C 12.9375 10.289062 12.011719 11.636719 11.933594 11.707031 C 11.859375 11.773438 11.847656 11.761719 11.632812 11.472656 C 11.515625 11.308594 11.277344 10.96875 11.109375 10.71875 L 10.804688 10.265625 L 11.066406 10.492188 C 11.207031 10.617188 11.441406 10.820312 11.589844 10.941406 Z M 11.257812 11.289062 C 11.542969 11.714844 11.765625 12.085938 11.757812 12.113281 C 11.710938 12.230469 11.4375 12.632812 11.398438 12.632812 C 11.359375 12.632812 11.101562 12.328125 11.035156 12.199219 C 11 12.128906 10.714844 10.972656 10.597656 10.410156 L 10.570312 10.308594 L 10.660156 10.410156 C 10.703125 10.46875 10.976562 10.863281 11.257812 11.289062 Z M 13.066406 10.769531 C 12.878906 11.609375 12.757812 12.097656 12.699219 12.214844 C 12.667969 12.277344 12.566406 12.394531 12.476562 12.480469 L 12.316406 12.636719 L 12.144531 12.386719 C 12.054688 12.246094 11.976562 12.109375 11.976562 12.089844 C 11.976562 12.019531 13.097656 10.328125 13.144531 10.328125 C 13.152344 10.328125 13.113281 10.527344 13.066406 10.769531 Z M 7.917969 10.914062 C 7.917969 11.019531 7.90625 11.121094 7.890625 11.136719 C 7.84375 11.183594 7.324219 11.3125 7.324219 11.277344 C 7.324219 11.242188 7.550781 10.925781 7.6875 10.769531 C 7.722656 10.726562 7.789062 10.699219 7.835938 10.707031 C 7.910156 10.71875 7.921875 10.75 7.917969 10.914062 Z M 10.136719 11.175781 C 10.207031 11.261719 10.203125 11.265625 9.9375 11.539062 L 9.671875 11.8125 L 9.671875 11.320312 C 9.671875 11.050781 9.683594 10.800781 9.695312 10.769531 C 9.714844 10.710938 9.847656 10.835938 10.136719 11.175781 Z M 16.09375 10.851562 C 16.265625 11.035156 16.417969 11.234375 16.417969 11.277344 C 16.417969 11.328125 15.90625 11.1875 15.855469 11.125 C 15.828125 11.085938 15.800781 10.988281 15.800781 10.90625 C 15.800781 10.644531 15.890625 10.632812 16.09375 10.851562 Z M 9.464844 10.902344 C 9.464844 11.046875 9.273438 11.417969 9.042969 11.726562 L 8.871094 11.949219 L 8.824219 11.832031 C 8.792969 11.761719 8.769531 11.679688 8.765625 11.644531 C 8.765625 11.570312 9.367188 10.78125 9.425781 10.78125 C 9.449219 10.78125 9.464844 10.835938 9.464844 10.902344 Z M 14.089844 10.996094 C 14.101562 11.113281 14.113281 11.359375 14.113281 11.53125 L 14.113281 11.851562 L 13.828125 11.554688 C 13.542969 11.273438 13.539062 11.257812 13.609375 11.175781 C 13.789062 10.957031 13.972656 10.78125 14.015625 10.78125 C 14.042969 10.78125 14.074219 10.875 14.089844 10.996094 Z M 14.609375 11.089844 C 14.90625 11.492188 14.980469 11.640625 14.949219 11.777344 C 14.917969 11.941406 14.851562 11.921875 14.683594 11.695312 C 14.367188 11.265625 14.210938 10.90625 14.308594 10.8125 C 14.359375 10.757812 14.382812 10.78125 14.609375 11.089844 Z M 8.21875 11.425781 C 8.25 11.515625 8.128906 11.605469 7.976562 11.605469 C 7.839844 11.605469 7.828125 11.554688 7.941406 11.441406 C 8.042969 11.339844 8.179688 11.332031 8.21875 11.425781 Z M 15.777344 11.445312 C 15.910156 11.546875 15.914062 11.605469 15.789062 11.605469 C 15.675781 11.605469 15.515625 11.496094 15.515625 11.414062 C 15.515625 11.328125 15.648438 11.34375 15.777344 11.445312 Z M 9.464844 11.675781 L 9.460938 11.953125 L 9.363281 11.839844 L 9.257812 11.722656 L 9.339844 11.5625 C 9.386719 11.472656 9.4375 11.398438 9.445312 11.398438 C 9.457031 11.398438 9.464844 11.523438 9.464844 11.675781 Z M 14.433594 11.636719 C 14.449219 11.707031 14.429688 11.761719 14.367188 11.824219 L 14.28125 11.910156 L 14.28125 11.644531 C 14.285156 11.398438 14.289062 11.382812 14.34375 11.460938 C 14.378906 11.507812 14.417969 11.589844 14.433594 11.636719 Z M 12.070312 12.5625 L 12.214844 12.742188 L 12.070312 12.914062 C 11.992188 13.007812 11.902344 13.085938 11.871094 13.085938 C 11.84375 13.085938 11.753906 13.011719 11.667969 12.917969 C 11.496094 12.734375 11.492188 12.769531 11.746094 12.476562 C 11.855469 12.351562 11.90625 12.363281 12.070312 12.5625 Z M 10.90625 12.804688 C 10.90625 13.144531 10.140625 14.179688 9.914062 14.148438 C 9.832031 14.140625 9.816406 14.109375 9.800781 13.964844 C 9.789062 13.800781 9.804688 13.769531 10.074219 13.46875 C 10.367188 13.144531 10.839844 12.675781 10.878906 12.675781 C 10.894531 12.675781 10.90625 12.738281 10.90625 12.804688 Z M 13.378906 13.164062 C 13.632812 13.4375 13.863281 13.699219 13.898438 13.753906 C 13.925781 13.804688 13.945312 13.933594 13.949219 14.046875 L 13.949219 14.238281 L 13.796875 14.160156 C 13.453125 13.984375 12.933594 13.25 12.824219 12.785156 C 12.773438 12.574219 12.910156 12.667969 13.378906 13.164062 Z M 10.902344 13.746094 C 10.675781 14.183594 10.558594 14.363281 10.417969 14.484375 C 10.210938 14.671875 10.148438 14.691406 10.183594 14.554688 C 10.292969 14.207031 10.722656 13.484375 11.007812 13.1875 C 11.265625 12.921875 11.234375 13.097656 10.902344 13.746094 Z M 12.691406 13.132812 C 12.855469 13.257812 13.320312 13.992188 13.480469 14.367188 C 13.558594 14.550781 13.613281 14.710938 13.605469 14.722656 C 13.59375 14.734375 13.464844 14.625 13.324219 14.480469 C 13.109375 14.261719 13.015625 14.121094 12.789062 13.65625 C 12.632812 13.339844 12.511719 13.078125 12.511719 13.066406 C 12.511719 13.019531 12.585938 13.050781 12.691406 13.132812 Z M 11.464844 13.585938 C 11.34375 14.011719 11.136719 14.402344 10.878906 14.671875 L 10.644531 14.914062 L 10.675781 14.753906 C 10.710938 14.5625 11.125 13.644531 11.292969 13.378906 C 11.394531 13.214844 11.410156 13.207031 11.472656 13.261719 C 11.53125 13.324219 11.53125 13.355469 11.464844 13.585938 Z M 12.625 13.691406 C 12.898438 14.21875 13.015625 14.511719 13.0625 14.734375 L 13.085938 14.875 L 12.835938 14.628906 C 12.546875 14.34375 12.46875 14.210938 12.351562 13.78125 C 12.238281 13.382812 12.238281 13.210938 12.34375 13.210938 C 12.363281 13.210938 12.484375 13.429688 12.625 13.691406 Z M 11.785156 13.773438 C 11.796875 13.945312 11.8125 14.222656 11.8125 14.386719 L 11.8125 14.683594 L 11.601562 14.871094 C 11.484375 14.976562 11.378906 15.0625 11.363281 15.0625 C 11.34375 15.0625 11.34375 14.925781 11.367188 14.761719 C 11.425781 14.257812 11.644531 13.457031 11.726562 13.457031 C 11.746094 13.457031 11.769531 13.597656 11.785156 13.773438 Z M 12.148438 13.707031 C 12.308594 14.179688 12.445312 15.0625 12.359375 15.0625 C 12.339844 15.0625 12.238281 14.976562 12.132812 14.867188 L 11.933594 14.675781 L 11.933594 14.253906 C 11.933594 13.757812 11.972656 13.449219 12.027344 13.46875 C 12.054688 13.476562 12.105469 13.585938 12.148438 13.707031 Z M 12.148438 13.707031 "/>
</g>
</svg>
